<svg width="36" height="36" viewBox="0 0 36 36" fill="none" xmlns="http://www.w3.org/2000/svg">
<path d="M36 18C36 8.1 27.9 0 18 0C8.1 0 0 8.1 0 18C0 27 6.6375 34.425 15.1875 35.775V23.175H10.575V18H15.1875V14.0625C15.1875 9.5625 17.8875 7.0875 21.9375 7.0875C23.9625 7.0875 25.9875 7.425 25.9875 7.425V11.8125H23.7375C21.4875 11.8125 20.8125 13.1625 20.8125 14.625V18H25.7625L24.975 23.175H20.8125V35.775C29.3625 34.425 36 27 36 18Z" fill="#3B5998"/>
<path d="M24.975 23.1749L25.7625 17.9999H20.8125V14.6249C20.8125 13.1624 21.4875 11.8124 23.7375 11.8124H25.9875V7.4249C25.9875 7.4249 23.9625 7.0874 21.9375 7.0874C17.775 7.0874 15.1875 9.5624 15.1875 14.0624V17.9999H10.575V23.1749H15.1875V35.7749C16.0875 35.8874 16.9875 35.9999 18 35.9999C19.0125 35.9999 19.9125 35.8874 20.8125 35.7749V23.1749H24.975Z" fill="white"/>
</svg>
