<svg width="177" height="24" viewBox="0 0 177 24" fill="none" xmlns="http://www.w3.org/2000/svg">
<path d="M0 0V24H10.2857V17.1429H16.5079V13.7143H10.2857V10.2857H17.1429V6.85714H6.85714V20.5714H3.42857V3.42857H20.5714V20.5714H13.7143V24H24V0H0Z" fill="white"/>
<path d="M41.2487 11.2593V13.4181H36.7196V17.5662H34.3069V6.73022H42.4127V8.88896H36.7196V11.2805L41.2487 11.2593Z" fill="white"/>
<path d="M48.6773 10.0318V12.1271H48.5927C48.2752 11.8942 47.8519 11.7673 47.3863 11.7673C46.0742 11.7673 45.5027 12.5715 45.5027 14.2858V17.5662H43.3652V9.88367H45.143L45.2488 11.0689H45.2911C45.7144 10.18 46.4551 9.71436 47.5768 9.71436C48.0424 9.73552 48.4657 9.84134 48.6773 10.0318Z" fill="white"/>
<path d="M55.4709 17.5663L55.4074 16.5292H55.3651C54.8572 17.27 54.0106 17.7144 52.8678 17.7144C50.6879 17.7144 49.1217 16.0425 49.1217 13.7144C49.1217 11.3864 50.709 9.7356 52.8678 9.7356C53.9895 9.7356 54.8572 10.1589 55.344 10.8996H55.3863L55.4709 9.90491H57.2487V17.5663H55.4709ZM55.1746 13.7356C55.1746 12.4869 54.3704 11.6404 53.2276 11.6404C52.0635 11.6404 51.2805 12.5081 51.2805 13.7356C51.2805 14.9631 52.0847 15.8308 53.2276 15.8308C54.3704 15.8308 55.1746 14.9631 55.1746 13.7356Z" fill="white"/>
<path d="M70.8996 12.9949V17.5663H68.762V13.2277C68.762 12.1695 68.2964 11.6192 67.471 11.6192C66.5186 11.6192 66.0318 12.2541 66.0318 13.6086V17.5663H63.9154V13.2277C63.9154 12.1695 63.4498 11.6192 62.6033 11.6192C61.6509 11.6192 61.1641 12.2541 61.1641 13.4393V17.5663H59.0266V9.88374H60.8043L60.889 10.9208H60.9313C61.3758 10.1589 62.1377 9.7356 63.1747 9.7356C64.2117 9.7356 65.0371 10.18 65.5027 10.9843H65.5451C66.0107 10.1377 66.8149 9.7356 68.0636 9.7356C69.8837 9.7356 70.8996 10.8996 70.8996 12.9949Z" fill="white"/>
<path d="M74.2223 14.2646C74.4551 15.3017 75.3863 15.8731 76.7197 15.8731C77.8202 15.8731 78.7726 15.5556 79.3863 14.9419H79.471V16.9948C78.8361 17.4604 77.799 17.7144 76.6138 17.7144C73.9048 17.7144 72.0636 16.0847 72.0636 13.7144C72.0636 11.3651 73.7355 9.71436 76.0636 9.71436C78.4551 9.71436 79.9366 11.1323 79.9366 13.3757V14.2435H74.2223V14.2646ZM74.2223 12.9736H78.0107C77.8625 12.0424 77.1429 11.5768 76.1271 11.5768C75.217 11.5768 74.4339 12.0847 74.2223 12.9736Z" fill="white"/>
<path d="M89.7989 17.566H87.3862V8.88871H84.1481V6.72998H93.0158V8.88871H89.7989V17.566Z" fill="#00CDFC"/>
<path d="M94.4761 14.2646C94.7089 15.3017 95.6613 15.8731 96.9735 15.8731C98.074 15.8731 99.0264 15.5556 99.6402 14.9419H99.7248V16.9948C99.0899 17.4604 98.0529 17.7144 96.8677 17.7144C94.1587 17.7144 92.3174 16.0847 92.3174 13.7144C92.3174 11.3651 93.9894 9.71436 96.3174 9.71436C98.7089 9.71436 100.19 11.1323 100.19 13.3757V14.2435H94.4761V14.2646ZM94.4761 12.9736H98.2645C98.1163 12.0424 97.3968 11.5768 96.3809 11.5768C95.4708 11.5768 94.6878 12.0847 94.4761 12.9736Z" fill="#00CDFC"/>
<path d="M107.619 10.3068V12.5925H107.534C107.026 11.9364 106.349 11.6401 105.46 11.6401C104.063 11.6401 103.217 12.4655 103.217 13.7354C103.217 15.0052 104.063 15.8306 105.46 15.8306C106.349 15.8306 107.047 15.5131 107.534 14.857H107.619V17.1428C107.069 17.5449 106.307 17.7142 105.227 17.7142C102.73 17.7142 101.058 16.0634 101.058 13.7142C101.058 11.365 102.751 9.73535 105.249 9.73535C106.307 9.73535 107.026 9.90466 107.619 10.3068Z" fill="#00CDFC"/>
<path d="M116.402 13.0158V17.566H114.265V13.2697C114.265 12.2115 113.735 11.6189 112.847 11.6189C111.852 11.6189 111.259 12.2962 111.259 13.4814V17.566H109.122V6.13745H111.259V10.5819H111.302C111.788 10.0105 112.508 9.71417 113.418 9.71417C115.28 9.73533 116.402 10.9417 116.402 13.0158Z" fill="#00CDFC"/>
<path d="M125.27 13.0158V17.566H123.132V13.2697C123.132 12.2115 122.603 11.6189 121.714 11.6189C120.719 11.6189 120.127 12.2962 120.127 13.4814V17.566H117.989V9.8835H119.767L119.852 10.984H119.894C120.36 10.1798 121.185 9.73535 122.286 9.73535C124.169 9.73535 125.27 10.9417 125.27 13.0158Z" fill="#00CDFC"/>
<path d="M134.645 13.7354C134.645 16.0634 132.952 17.7354 130.561 17.7354C128.148 17.7354 126.455 16.0634 126.455 13.7354C126.455 11.3861 128.148 9.73535 130.561 9.73535C132.952 9.73535 134.645 11.3861 134.645 13.7354ZM128.593 13.7354C128.593 14.984 129.397 15.8306 130.54 15.8306C131.682 15.8306 132.487 14.9629 132.487 13.7354C132.487 12.5078 131.682 11.6401 130.54 11.6401C129.397 11.6189 128.593 12.4867 128.593 13.7354Z" fill="#00CDFC"/>
<path d="M135.958 6.13745H138.095V17.566H135.958V6.13745Z" fill="#00CDFC"/>
<path d="M147.598 13.7354C147.598 16.0634 145.905 17.7354 143.492 17.7354C141.079 17.7354 139.386 16.0634 139.386 13.7354C139.386 11.3861 141.079 9.73535 143.492 9.73535C145.905 9.73535 147.598 11.3861 147.598 13.7354ZM141.545 13.7354C141.545 14.984 142.349 15.8306 143.492 15.8306C144.635 15.8306 145.439 14.9629 145.439 13.7354C145.439 12.5078 144.635 11.6401 143.492 11.6401C142.349 11.6189 141.545 12.4867 141.545 13.7354Z" fill="#00CDFC"/>
<path d="M156.593 16.9311C156.593 19.3227 154.984 20.8041 152.317 20.8041C151.026 20.8041 149.926 20.4867 149.227 19.9787V17.8412H149.312C149.884 18.5184 150.921 18.9417 152.063 18.9417C153.587 18.9417 154.455 18.1798 154.455 16.8253V16.783H154.413C153.883 17.3121 153.164 17.6084 152.212 17.6084C150.032 17.6084 148.466 15.9999 148.466 13.6719C148.466 11.365 150.053 9.73535 152.212 9.73535C153.354 9.73535 154.201 10.1586 154.709 10.8994H154.751L154.815 9.8835H156.593V16.9311ZM154.518 13.6507C154.518 12.402 153.714 11.6189 152.571 11.6189C151.407 11.6189 150.624 12.4232 150.624 13.6507C150.624 14.8994 151.428 15.6824 152.571 15.6824C153.714 15.7036 154.518 14.8994 154.518 13.6507Z" fill="#00CDFC"/>
<path d="M160.741 7.51334C160.741 8.29641 160.19 8.82551 159.428 8.82551C158.667 8.82551 158.116 8.29641 158.116 7.51334C158.116 6.75144 158.667 6.20117 159.428 6.20117C160.169 6.20117 160.741 6.75144 160.741 7.51334ZM158.328 9.88371H160.465V17.5663H158.328V9.88371Z" fill="#00CDFC"/>
<path d="M163.958 14.2646C164.19 15.3017 165.143 15.8731 166.455 15.8731C167.556 15.8731 168.508 15.5556 169.122 14.9419H169.206V16.9948C168.571 17.4604 167.534 17.7144 166.349 17.7144C163.64 17.7144 161.799 16.0847 161.799 13.7144C161.799 11.3651 163.471 9.71436 165.799 9.71436C168.19 9.71436 169.672 11.1323 169.672 13.3757V14.2435H163.958V14.2646ZM163.958 12.9736H167.746C167.598 12.0424 166.878 11.5768 165.862 11.5768C164.952 11.5768 164.169 12.0847 163.958 12.9736Z" fill="#00CDFC"/>
<path d="M176.233 10.2223V12.254H176.148C175.64 11.7461 174.857 11.4921 173.862 11.4921C173.037 11.4921 172.614 11.7461 172.614 12.2117C172.614 12.5503 172.868 12.6985 173.883 12.762C175.915 12.889 176.719 13.6085 176.719 15.217C176.719 16.7831 175.555 17.7144 173.566 17.7144C172.296 17.7144 171.323 17.4816 170.667 17.0371V14.9842H170.772C171.386 15.6403 172.296 15.9577 173.481 15.9577C174.307 15.9577 174.73 15.7038 174.73 15.217C174.73 14.8149 174.413 14.6456 173.333 14.5398C171.386 14.3704 170.624 13.7778 170.624 12.254C170.624 10.7091 171.873 9.71436 173.82 9.71436C174.751 9.73552 175.64 9.90483 176.233 10.2223Z" fill="#00CDFC"/>
</svg>
