<svg width="36" height="36" viewBox="0 0 36 36" fill="none" xmlns="http://www.w3.org/2000/svg">
<path d="M18 36C27.9411 36 36 27.9411 36 18C36 8.05887 27.9411 0 18 0C8.05887 0 0 8.05887 0 18C0 27.9411 8.05887 36 18 36Z" fill="#00ACEE"/>
<path d="M14.7059 27.4949C22.6889 27.4949 27.0539 20.8799 27.0539 15.1469C27.0539 14.9579 27.0539 14.7689 27.0449 14.5889C27.8909 13.9769 28.6289 13.2119 29.2139 12.3389C28.4399 12.6809 27.6029 12.9149 26.7209 13.0229C27.6209 12.4829 28.3049 11.6369 28.6289 10.6199C27.7919 11.1149 26.8649 11.4749 25.8749 11.6729C25.0829 10.8269 23.9579 10.3049 22.7069 10.3049C20.3129 10.3049 18.3689 12.2489 18.3689 14.6429C18.3689 14.9849 18.4049 15.3179 18.4859 15.6329C14.8769 15.4529 11.6819 13.7249 9.53994 11.0969C9.17094 11.7359 8.95494 12.4829 8.95494 13.2749C8.95494 14.7779 9.71994 16.1099 10.8899 16.8839C10.1789 16.8659 9.51294 16.6679 8.92794 16.3439C8.92794 16.3619 8.92794 16.3799 8.92794 16.3979C8.92794 18.5039 10.4219 20.2499 12.4109 20.6549C12.0509 20.7539 11.6639 20.8079 11.2679 20.8079C10.9889 20.8079 10.7189 20.7809 10.4489 20.7269C10.9979 22.4549 12.5999 23.7059 14.4989 23.7419C13.0139 24.9029 11.1419 25.5959 9.10794 25.5959C8.75694 25.5959 8.41494 25.5779 8.07294 25.5329C9.97194 26.7749 12.2579 27.4949 14.7059 27.4949Z" fill="white"/>
</svg>
